<svg width="48" height="48" viewBox="0 0 48 48" fill="none" xmlns="http://www.w3.org/2000/svg">
<path d="M35.5538 34.4545V45H42.2912V20.0033H35.798V29.8164H35.6027C35.1795 28.6203 34.4757 27.6886 33.4911 27.0214C32.5066 26.346 31.3226 26.0084 29.9393 26.0084C28.613 26.0084 27.4616 26.3094 26.4852 26.9116C25.5006 27.5137 24.7398 28.3437 24.2028 29.4015C23.6576 30.4593 23.3891 31.6717 23.3972 33.0387V45H30.1346V34.4545C30.1265 33.5269 30.3584 32.7986 30.8303 32.2697C31.2941 31.7408 31.9573 31.4764 32.8198 31.4764C33.365 31.4764 33.8451 31.5984 34.2601 31.8425C34.6669 32.0785 34.9843 32.4203 35.2121 32.8678C35.4318 33.3072 35.5457 33.8361 35.5538 34.4545Z" fill="white"/>
<path d="M30 9.75C30 8.784 30.784 8 31.75 8H34.75C35.716 8 36.5 8.784 36.5 9.75V13.75C36.5 14.2141 36.3156 14.6592 35.9874 14.9874C35.6592 15.3156 35.2141 15.5 34.75 15.5H31.75C31.2859 15.5 30.8408 15.3156 30.5126 14.9874C30.1844 14.6592 30 14.2141 30 13.75V9.75ZM31.75 9.5C31.6837 9.5 31.6201 9.52634 31.5732 9.57322C31.5263 9.62011 31.5 9.6837 31.5 9.75V13.75C31.5 13.888 31.612 14 31.75 14H34.75C34.8163 14 34.8799 13.9737 34.9268 13.9268C34.9737 13.8799 35 13.8163 35 13.75V9.75C35 9.6837 34.9737 9.62011 34.9268 9.57322C34.8799 9.52634 34.8163 9.5 34.75 9.5H31.75ZM39 8C38.8011 8 38.6103 8.07902 38.4697 8.21967C38.329 8.36032 38.25 8.55109 38.25 8.75C38.25 8.94891 38.329 9.13968 38.4697 9.28033C38.6103 9.42098 38.8011 9.5 39 9.5H40.5V14H39C38.8011 14 38.6103 14.079 38.4697 14.2197C38.329 14.3603 38.25 14.5511 38.25 14.75C38.25 14.9489 38.329 15.1397 38.4697 15.2803C38.6103 15.421 38.8011 15.5 39 15.5H43.5C43.6989 15.5 43.8897 15.421 44.0303 15.2803C44.171 15.1397 44.25 14.9489 44.25 14.75C44.25 14.5511 44.171 14.3603 44.0303 14.2197C43.8897 14.079 43.6989 14 43.5 14H42V8.75C42 8.55109 41.921 8.36032 41.7803 8.21967C41.6397 8.07902 41.4489 8 41.25 8H39Z" fill="white" fill-opacity="0.4"/>
</svg>
