        <svg width="48" height="31" viewBox="0 0 48 31" fill="none" xmlns="http://www.w3.org/2000/svg">
          <path d="M13.8015 30.3277L18.7771 0H21.7388L16.7632 30.3277H13.8015ZM0 21.9165L0.473871 18.9548H11.7875H23.1012L22.6273 21.9165H0ZM3.1394 30.3277L8.11504 0H11.0767L6.10109 30.3277H3.1394ZM1.77702 11.3729L2.25089 8.41121H24.8782L24.4044 11.3729H1.77702Z" fill="#919191" fill-opacity="0.1"/>
          <path d="M15.1481 30.4585L20.1238 0.130737H23.0855L18.1098 30.4585H15.1481ZM4.48604 30.4585L9.46168 0.130737H12.4234L7.44773 30.4585H4.48604ZM3.12366 11.5036L3.59753 8.54195H26.2249L25.751 11.5036H3.12366Z" fill="#748081"/>
      <path d="M21.8341 20.9562L23.3203 12.7238C23.3281 12.6926 23.3476 12.677 23.3788 12.677H25.1165C25.1477 12.677 25.1673 12.6926 25.1751 12.7238L26.6027 20.9562C26.6066 20.9953 26.591 21.0148 26.5559 21.0148H25.2277C25.1887 21.0148 25.1673 20.9953 25.1634 20.9562L25.0346 20.0786H23.4022L23.2735 20.9562C23.2696 20.9953 23.2501 21.0148 23.215 21.0148H21.8809C21.8497 21.0148 21.8341 20.9953 21.8341 20.9562ZM24.1804 15.4329L23.6421 18.7972H24.7947L24.3032 15.4329L24.233 14.9882L24.1804 15.4329Z" fill="#748081"/>
      <path d="M29.3878 21.1318C28.9626 21.1318 28.5706 21.0226 28.2117 20.8041C27.8568 20.5857 27.572 20.2951 27.3575 19.9323C27.1469 19.5656 27.0415 19.1639 27.0415 18.727V18.177C27.0415 18.1341 27.061 18.1126 27.1 18.1126H28.4458C28.477 18.1126 28.4926 18.1341 28.4926 18.177V18.727C28.4926 18.9883 28.5804 19.2146 28.7559 19.4057C28.9314 19.5929 29.1421 19.6866 29.3878 19.6866C29.6375 19.6866 29.85 19.591 30.0256 19.3999C30.2011 19.2048 30.2889 18.9805 30.2889 18.727C30.2889 18.4344 30.0977 18.1789 29.7155 17.9605C29.6531 17.9215 29.5711 17.8747 29.4697 17.8201C29.3722 17.7616 29.2552 17.6953 29.1187 17.6211C28.9821 17.547 28.8495 17.4749 28.7208 17.4047C28.5921 17.3305 28.4672 17.2603 28.3463 17.194C27.9094 16.9366 27.5837 16.6148 27.3692 16.2286C27.1586 15.8385 27.0532 15.4016 27.0532 14.918C27.0532 14.4733 27.1625 14.0715 27.3809 13.7126C27.5993 13.3577 27.8841 13.0768 28.2352 12.8701C28.5901 12.6595 28.9743 12.5541 29.3878 12.5541C29.813 12.5541 30.2031 12.6595 30.558 12.8701C30.913 13.0846 31.1958 13.3694 31.4064 13.7243C31.621 14.0793 31.7282 14.4772 31.7282 14.918V15.9009C31.7282 15.9321 31.7126 15.9477 31.6814 15.9477H30.3357C30.3045 15.9477 30.2889 15.9321 30.2889 15.9009L30.2772 14.918C30.2772 14.6371 30.1894 14.4089 30.0139 14.2334C29.8383 14.0579 29.6297 13.9701 29.3878 13.9701C29.1421 13.9701 28.9314 14.0637 28.7559 14.2509C28.5804 14.4382 28.4926 14.6605 28.4926 14.918C28.4926 15.1793 28.5472 15.3977 28.6564 15.5733C28.7695 15.7488 28.9743 15.9165 29.2708 16.0765C29.302 16.0921 29.3742 16.1311 29.4873 16.1935C29.6004 16.2559 29.7252 16.3261 29.8617 16.4041C30.0022 16.4782 30.1289 16.5465 30.2421 16.6089C30.3552 16.6674 30.4234 16.7025 30.4468 16.7142C30.8447 16.9366 31.1587 17.2096 31.3889 17.5334C31.6229 17.8571 31.7399 18.255 31.7399 18.727C31.7399 19.1834 31.6346 19.5929 31.424 19.9557C31.2094 20.3185 30.9247 20.6052 30.5697 20.8158C30.2148 21.0265 29.8208 21.1318 29.3878 21.1318Z" fill="#748081"/>
      <path d="M33.975 21.0148H32.6176C32.5864 21.0148 32.5708 20.9953 32.5708 20.9562L32.5825 12.7238C32.5825 12.6926 32.602 12.677 32.641 12.677H33.975C34.014 12.677 34.0335 12.6926 34.0335 12.7238L34.0218 15.9829H35.8181V12.7238C35.8181 12.6926 35.8337 12.677 35.8649 12.677H37.199C37.238 12.677 37.2575 12.6926 37.2575 12.7238L37.2809 20.9562C37.2809 20.9953 37.2614 21.0148 37.2224 21.0148H35.8766C35.8376 21.0148 35.8181 20.9953 35.8181 20.9562V17.4339H34.0218V20.9562C34.0218 20.9953 34.0062 21.0148 33.975 21.0148Z" fill="#748081"/>
      <path d="M42.1782 21.0148H38.3048C38.2736 21.0148 38.258 20.9953 38.258 20.9562L38.2697 12.7238C38.2697 12.6926 38.2853 12.677 38.3165 12.677H42.1665C42.1977 12.677 42.2133 12.6965 42.2133 12.7355V14.0754C42.2133 14.1066 42.1977 14.1222 42.1665 14.1222H39.7091V15.9946H42.1665C42.1977 15.9946 42.2133 16.0102 42.2133 16.0414L42.225 17.3988C42.225 17.43 42.2094 17.4456 42.1782 17.4456H39.7091V19.5403H42.1782C42.2094 19.5403 42.225 19.5598 42.225 19.5988V20.9679C42.225 20.9992 42.2094 21.0148 42.1782 21.0148Z" fill="#748081"/>
      <path d="M45.4957 21.0031L43.3484 21.0148C43.3094 21.0148 43.2899 20.9953 43.2899 20.9562L43.3133 12.7238C43.3133 12.6926 43.3289 12.677 43.3601 12.677L45.6011 12.6653C46.0457 12.6536 46.4475 12.755 46.8064 12.9696C47.1691 13.1841 47.4578 13.4747 47.6723 13.8414C47.8908 14.2041 48 14.6059 48 15.0467V18.4871C48 18.9474 47.8888 19.3687 47.6665 19.7509C47.4402 20.1293 47.1399 20.4316 46.7654 20.6578C46.391 20.8802 45.9677 20.9953 45.4957 21.0031ZM45.6011 14.0988L44.7644 14.1105L44.7527 19.5403H45.4957C45.7922 19.5403 46.0418 19.4369 46.2447 19.2302C46.4475 19.0234 46.5489 18.7758 46.5489 18.4871V15.035C46.5489 14.7814 46.4553 14.561 46.2681 14.3738C46.0808 14.1827 45.8585 14.091 45.6011 14.0988Z" fill="#748081"/>
      </svg>